<?xml version="1.0" standalone="no"?>
<!DOCTYPE svg PUBLIC "-//W3C//DTD SVG 20010904//EN"
 "http://www.w3.org/TR/2001/REC-SVG-20010904/DTD/svg10.dtd">
<svg version="1.0" xmlns="http://www.w3.org/2000/svg"
 width="512.000000pt" height="512.000000pt" viewBox="0 0 512.000000 512.000000"
 preserveAspectRatio="xMidYMid meet">

<g transform="translate(0.000000,512.000000) scale(0.100000,-0.100000)"
fill="#000000" stroke="none">
<path d="M3455 4946 c-41 -18 -83 -69 -91 -110 -3 -19 -4 -84 -2 -144 2 -93 6
-115 24 -138 39 -53 71 -69 134 -69 63 0 95 16 134 69 19 25 21 42 21 166 0
151 -5 167 -67 213 -33 25 -113 32 -153 13z"/>
<path d="M1695 4786 c-73 -33 -95 -83 -95 -211 l0 -93 -109 -4 c-118 -3 -141
-12 -185 -72 -29 -39 -29 -133 0 -172 44 -60 67 -69 184 -72 l108 -4 4 -108
c3 -117 12 -140 72 -184 39 -29 133 -29 172 0 60 44 69 67 72 184 l4 108 108
4 c91 2 113 6 136 24 53 39 69 71 69 134 0 63 -16 95 -69 134 -23 18 -45 22
-136 24 l-108 4 -4 108 c-3 117 -12 140 -70 183 -34 25 -113 32 -153 13z"/>
<path d="M4580 4789 c-31 -12 -196 -174 -217 -213 -8 -15 -15 -48 -15 -71 0
-91 66 -157 157 -157 61 0 88 18 192 124 97 100 112 130 99 203 -17 91 -127
149 -216 114z"/>
<path d="M2696 4465 c-47 -17 -91 -57 -119 -110 -21 -38 -22 -56 -27 -389 l-5
-348 -280 -202 c-325 -234 -340 -250 -340 -354 0 -80 23 -131 78 -176 31 -24
95 -47 354 -121 l317 -91 91 -317 c74 -259 97 -323 121 -354 45 -55 96 -78
176 -78 104 0 120 15 354 340 l202 280 348 5 c335 5 351 6 390 27 106 57 152
176 105 278 -10 22 -102 154 -205 294 -103 140 -185 260 -182 267 85 221 226
634 226 661 0 125 -98 223 -223 223 -21 0 -171 -49 -353 -115 -174 -63 -322
-111 -328 -108 -6 4 -121 88 -256 187 -135 98 -263 187 -285 197 -47 22 -105
23 -159 4z m389 -559 c210 -155 245 -176 290 -176 17 0 143 40 280 90 137 49
250 88 252 86 2 -1 -37 -115 -87 -252 -49 -137 -90 -261 -90 -277 0 -47 23
-85 179 -297 l151 -205 -282 -5 c-262 -5 -286 -7 -318 -25 -24 -14 -86 -91
-195 -242 -88 -122 -162 -224 -165 -227 -3 -3 -38 108 -78 246 -40 138 -81
263 -92 278 -28 39 -58 51 -323 126 l-238 68 27 21 c15 11 115 83 223 161 107
77 203 152 214 165 31 43 37 95 37 362 0 204 3 257 13 250 6 -4 98 -70 202
-147z"/>
<path d="M4575 3666 c-97 -43 -124 -171 -54 -251 42 -47 84 -57 221 -53 99 2
121 6 144 24 53 39 69 71 69 134 0 63 -16 95 -69 134 -24 18 -44 21 -154 24
-91 1 -136 -2 -157 -12z"/>
<path d="M2074 2640 c-19 -8 -1368 -1263 -1572 -1464 -107 -104 -156 -188
-175 -299 -53 -313 229 -598 543 -550 82 13 180 56 235 104 60 53 1506 1600
1526 1634 12 19 19 49 19 80 0 112 -106 183 -217 144 -21 -7 -183 -173 -499
-510 -258 -276 -481 -515 -496 -532 l-27 -32 -96 95 c-52 52 -94 98 -93 101 2
4 235 224 518 488 283 265 525 498 537 519 13 21 23 54 23 76 0 52 -40 119
-84 140 -36 17 -107 20 -142 6z m-907 -1679 c-128 -145 -278 -296 -304 -307
-125 -53 -256 69 -214 199 9 27 56 77 173 187 l161 151 103 -102 104 -103 -23
-25z"/>
<path d="M4255 2226 c-73 -33 -95 -83 -95 -211 l0 -93 -109 -4 c-118 -3 -141
-12 -185 -72 -29 -39 -29 -133 0 -172 44 -60 67 -69 184 -72 l108 -4 4 -108
c3 -117 12 -140 72 -184 39 -29 133 -29 172 0 60 44 69 67 72 184 l4 108 108
4 c91 2 113 6 136 24 53 39 69 71 69 134 0 63 -16 95 -69 134 -23 18 -45 22
-136 24 l-108 4 -4 108 c-3 117 -12 140 -70 183 -34 25 -113 32 -153 13z"/>
</g>
</svg>
